<?xml version="1.0" encoding="utf-8"?>
<!-- Generator: Adobe Illustrator 24.0.2, SVG Export Plug-In . SVG Version: 6.00 Build 0)  -->
<svg version="1.1" id="Capa_1" xmlns="http://www.w3.org/2000/svg" xmlns:xlink="http://www.w3.org/1999/xlink" x="0px" y="0px"
	 viewBox="0 0 1415.9 315.8" style="enable-background:new 0 0 1415.9 315.8;" xml:space="preserve">
<style type="text/css">
	.st0{fill:#D24A1E;}
</style>
<path class="st0" d="M1310.4,152.9c-1.7,2.8-2.7,5.2-4.3,6.8c-26.1,26.3-52.4,52.4-78.5,78.7c-16.6,16.7-33.1,33.5-49.6,50.2
	c-5.7,5.8-9.4,6.2-16.5,2c-6.3-3.7-12.7-7.1-19-10.9c-7.3-4.3-8.1-10.3-2.3-16.2c35.9-36.2,71.7-72.4,107.8-108.4
	c3-3,3.6-4.8,0.3-8.1c-27.8-27.6-55.5-55.4-83.2-83.1c-6.7-6.7-13.5-13.3-20.1-20c-4.1-4.2-4.2-8.2,0.2-12
	c6.1-5.4,12.5-10.6,19-15.6c4.9-3.7,9.5-3.3,14.5,1.3c6.6,6.2,13,12.7,19.4,19.1c35.8,35.8,71.5,71.6,107.2,107.5
	C1307.4,146.7,1308.6,149.9,1310.4,152.9z"/>
<path class="st0" d="M1393.7,152.5c-1.6,2.8-2.5,5.4-4.3,7.2c-42.9,43-85.9,86-128.9,128.9c-6.2,6.2-10.5,6.7-18.1,2.1
	c-5.5-3.3-10.9-6.8-16.3-10.3c-8.3-5.4-8.9-10.7-2-17.7c35.2-35.6,70.4-71.2,105.8-106.6c3.7-3.7,4.1-5.8,0.2-9.8
	c-33.2-33.3-66.2-66.8-99.3-100.3c-5.3-5.4-5.4-10.6,0.3-15.5c5.4-4.7,10.9-9.2,16.5-13.6c4.8-3.8,9.9-3.1,14.8,1.7
	c11.6,11.6,23.1,23.3,34.7,34.8c30.4,30.3,60.9,60.6,91.2,90.9C1390.6,146.5,1391.8,149.5,1393.7,152.5z"/>
<path d="M905.5,129.2c12.6-15.5,24.9-30.3,36.7-45.4c3.5-4.4,7-6.3,12.5-5.8c6.1,0.5,12.4,0.1,18.9,0.1c0,48.1,0,95.8,0,143.8
	c-10.1,0-20,0-30.6,0c0-30.3,0-60.6,0-90.9c-0.4-0.2-0.8-0.3-1.2-0.5c-2.6,3-5.2,6-7.7,9.1c-7.9,9.9-15.6,19.9-23.5,29.8
	c-3.8,4.7-6.9,4.8-10.7,0c-10.4-13-20.8-26.1-31.9-40c0,31.3,0,61.6,0,92.4c-10.6,0-20.6,0-31,0c0-47.7,0-95.2,0-143.6
	c9,0,18-0.1,27,0.1c1.2,0,2.4,1.9,3.4,3.1c11.1,13.9,22.1,27.9,33.2,41.9C902.2,125.1,903.6,126.9,905.5,129.2z"/>
<path d="M424.8,170.9c0-30.8,0-61.6,0-92.6c10,0,19.6,0,29.8,0c0.1,1.8,0.3,3.5,0.3,5.2c0,44.7,0,89.5,0.1,134.2
	c0,3.6-1.2,4.8-4.6,4.5c-3.2-0.2-6.5-0.6-9.6,0c-11.6,2.2-18.6-3.2-25.6-12.2c-20.3-26.2-41.6-51.6-62.6-77.2
	c-0.6-0.8-1.3-1.5-2.9-3.4c0,31.6,0,61.8,0,92.4c-10.5,0-20.4,0-30.5,0c0-47.9,0-95.4,0-143.7c8.8,0,17.5-0.2,26.1,0.2
	c1.5,0.1,3,2.2,4.2,3.7c23.7,28.5,47.3,57.1,70.9,85.7c1,1.2,2,2.4,3,3.5C424,171.2,424.4,171.1,424.8,170.9z"/>
<path d="M153.1,150.1C153,113,179.9,82,216.8,76.7c36-5.1,67,8.7,82.6,37.2c24.5,44.8-1.3,101.8-54.5,108.8c-16.2,2.1-32,1.4-47.2-5
	C170.3,206.2,153.1,179.9,153.1,150.1z M230.7,195.2c25.3,0.5,45.1-18.6,45.6-44.3c0.5-25.9-18.4-45.9-44-46.4
	c-26.3-0.5-46,18.4-46.5,44.5C185.3,175.2,204.3,194.7,230.7,195.2z"/>
<path d="M1061.5,224.1c-38.5-0.5-66.7-22.1-75-57.6c-9.6-41.4,18.3-83.1,60.6-89.6c31.5-4.8,59.2,2.7,78.6,29.6
	c30.4,42.3,10.2,107.2-48.3,116.1C1072.1,223.5,1066.8,223.6,1061.5,224.1z M1061.6,195.3c25.7,0.3,45.2-18.6,45.6-44.2
	c0.5-26.2-18.8-46.3-44.5-46.6c-25.6-0.2-45.4,19.2-45.7,45C1016.8,175.7,1035.6,195,1061.6,195.3z"/>
<path d="M13.4,221.9c0-48,0-95.5,0-143.5c1.9-0.1,3.7-0.3,5.4-0.3c17.8,0,35.6-0.4,53.4,0c28.6,0.7,52.1,11.1,66.5,37.1
	c17.8,32.1,8.3,73.8-21.2,94.1c-12.9,8.8-27.5,12.6-42.9,12.8c-19.6,0.3-39.2,0.1-58.8,0.1C15.2,222.3,14.6,222.1,13.4,221.9z
	 M45.6,105.3c0,30.8,0,60.1,0,89.4c9.9,0,19.3,0.3,28.7-0.1c22-0.9,38.2-17,40.4-39.5c2.2-23.3-10.5-43.1-32.3-47.3
	C70.6,105.4,58.1,106,45.6,105.3z"/>
<path d="M642.9,78.3c29.2,0,57.7,0,87,0c0,8.5,0.2,16.9-0.2,25.2c0,0.9-3.1,2.4-4.7,2.4c-15,0.2-29.9,0.2-44.9,0.2
	c-1.9,0-3.8,0-6.1,0c0,9.9,0,19.3,0,29.2c5,0,9.8,0,14.5,0c11.2,0,22.4,0,33.7-0.2c3.4-0.1,4.8,0.9,4.7,4.5
	c-0.2,7.6-0.1,15.2-0.1,23.3c-17.8,0-35,0-52.7,0c0,10.5,0,20.5,0,31.3c2.7,0,5.3,0,7.9,0c14.4-0.1,28.9,0,43.3-0.2
	c4.3-0.1,6.2,1,5.9,5.6c-0.3,6.2-0.2,12.5-0.1,18.7c0,2.5-0.4,4.1-3.4,4.1c-27.8-0.1-55.6-0.1-83.4-0.1c-0.3,0-0.6-0.3-1.3-0.6
	C642.9,174.1,642.9,126.5,642.9,78.3z"/>
<path d="M558.9,222.3c0-39,0-77.4,0-116.4c-15.1,0-29.6,0-44.3,0c0-9.4,0-18.2,0-27.5c40,0,79.6,0,119.8,0c0,8.8,0,17.8,0,27.3
	c-14.5,0-29,0-44.5,0c0,3.5,0,6.5,0,9.4c0,33.9,0,67.7,0.2,101.6c0,4.5-1.2,5.8-5.6,5.6C576.2,222,567.8,222.3,558.9,222.3z"/>
<path d="M773.6,194.1c17.7,0,34.7,0.1,51.6-0.1c4.3-0.1,6.1,0.9,5.8,5.6c-0.4,7.3-0.1,14.5-0.1,22.1c-1.6,0.2-2.8,0.6-4,0.6
	c-26.6,0-53.1,0-79.7,0.1c-3.5,0-5-0.7-5-4.7c0.1-45.3,0.1-90.5,0.1-135.8c0-1,0.2-2.1,0.3-3.4c10.1,0,20,0,30.9,0
	c0,19.1,0,38.3,0,57.5C773.6,155.1,773.6,174.3,773.6,194.1z"/>
</svg>
